<?xml version="1.0" encoding="utf-8"?>
<!-- Generator: Adobe Illustrator 27.0.1, SVG Export Plug-In . SVG Version: 6.00 Build 0)  -->
<svg version="1.1" id="Layer_1" xmlns="http://www.w3.org/2000/svg" xmlns:xlink="http://www.w3.org/1999/xlink" x="0px" y="0px"
	 viewBox="0 0 240 320" style="enable-background:new 0 0 240 320;" xml:space="preserve">
<style type="text/css">
	.st0{fill:#111111;}
	.st1{fill:none;stroke:#353535;stroke-width:10;stroke-miterlimit:10;}
	.st2{fill:none;stroke:#353535;stroke-width:6;stroke-miterlimit:10;}
	.st3{fill:#111111;stroke:#353535;stroke-width:5;stroke-miterlimit:10;}
</style>
<rect class="st0" width="240" height="320"/>
<g>
	<path class="st1" d="M168.75,183.75v-60c0-8.28-6.72-15-15-15h-70c-8.28,0-15,6.72-15,15v70c0,8.28,6.72,15,15,15h60"/>
	<path class="st1" d="M103.75,183.75v-42.5c0-5.52,4.48-10,10-10h10c5.52,0,10,4.48,10,10v7.5c0,5.52-4.48,10-10,10h-5"/>
	<circle class="st2" cx="118.75" cy="158.75" r="2"/>
	<circle class="st2" cx="103.75" cy="183.75" r="2"/>
	<circle class="st3" cx="143.75" cy="208.75" r="2.5"/>
	<circle class="st3" cx="168.75" cy="183.75" r="2.5"/>
</g>
</svg>
