<?xml version="1.0" encoding="utf-8"?>
<!-- Generator: Adobe Illustrator 27.0.1, SVG Export Plug-In . SVG Version: 6.00 Build 0)  -->
<svg version="1.1" id="Layer_1" xmlns="http://www.w3.org/2000/svg" xmlns:xlink="http://www.w3.org/1999/xlink" x="0px" y="0px"
	 viewBox="0 0 1080 1920" style="enable-background:new 0 0 1080 1920;" xml:space="preserve">
<style type="text/css">
	.st0{fill:#111111;}
	.st1{fill:none;stroke:#353535;stroke-width:25;stroke-miterlimit:10;}
	.st2{fill:#353535;}
</style>
<rect class="st0" width="1080" height="1920"/>
<rect y="240" class="st0" width="1080" height="1440"/>
<g>
	<path class="st1" d="M759.38,1066.88v-270c0-37.28-30.22-67.5-67.5-67.5h-315c-37.28,0-67.5,30.22-67.5,67.5v315
		c0,37.28,30.22,67.5,67.5,67.5h270"/>
	<path class="st1" d="M466.88,1066.88V875.62c0-24.85,20.15-45,45-45h45c24.85,0,45,20.15,45,45v33.75c0,24.85-20.15,45-45,45h-22.5
		"/>
	<circle class="st2" cx="534.38" cy="954.38" r="12.5"/>
	<circle class="st2" cx="466.88" cy="1066.88" r="12.5"/>
	<circle class="st2" cx="646.88" cy="1179.38" r="12.5"/>
	<circle class="st2" cx="759.38" cy="1066.88" r="12.5"/>
</g>
</svg>
