<?xml version="1.0" encoding="utf-8"?>
<!-- Generator: Adobe Illustrator 27.0.1, SVG Export Plug-In . SVG Version: 6.00 Build 0)  -->
<svg version="1.1" id="Layer_1" xmlns="http://www.w3.org/2000/svg" xmlns:xlink="http://www.w3.org/1999/xlink" x="0px" y="0px"
	 viewBox="0 0 1920 1080" style="enable-background:new 0 0 1920 1080;" xml:space="preserve">
<style type="text/css">
	.st0{fill:#111111;}
	.st1{fill:none;stroke:#353535;stroke-width:25;stroke-miterlimit:10;}
	.st2{fill:#353535;}
</style>
<rect x="420" y="-420" transform="matrix(6.123234e-17 -1 1 6.123234e-17 420 1500)" class="st0" width="1080" height="1920"/>
<g>
	<path class="st1" d="M1185.62,646.25v-270c0-37.28-30.22-67.5-67.5-67.5h-315c-37.28,0-67.5,30.22-67.5,67.5v315
		c0,37.28,30.22,67.5,67.5,67.5h270"/>
	<path class="st1" d="M893.12,646.25V455c0-24.85,20.15-45,45-45h45c24.85,0,45,20.15,45,45v33.75c0,24.85-20.15,45-45,45h-22.5"/>
	<circle class="st2" cx="960.62" cy="533.75" r="12.5"/>
	<circle class="st2" cx="893.12" cy="646.25" r="12.5"/>
	<circle class="st2" cx="1073.12" cy="758.75" r="12.5"/>
	<circle class="st2" cx="1185.62" cy="646.25" r="12.5"/>
</g>
</svg>
